PathFileType	4	(X/Y/Z)	6_1_11_p1_0-214_filt_butterworth.trc
DataRate	CameraRate	NumFrames	NumMarkers	Units	OrigDataRate	OrigDataStartFrame	OrigNumFrames
60.0	60.0	5	27	m	60.0	187	214
Frame#	Time	RHip			RKnee			RAnkle			RBigToe			RSmallToe			RHeel			LHip			LKnee			LAnkle			LBigToe			LSmallToe			LHeel			Neck			Head			Nose			RShoulder			RElbow			RWrist			RThumb			RIndex			RPinky			LShoulder			LElbow			LWrist			LThumb			LIndex			LPinky			
		X1	Y1	Z1	X2	Y2	Z2	X3	Y3	Z3	X4	Y4	Z4	X5	Y5	Z5	X6	Y6	Z6	X7	Y7	Z7	X8	Y8	Z8	X9	Y9	Z9	X10	Y10	Z10	X11	Y11	Z11	X12	Y12	Z12	X13	Y13	Z13	X14	Y14	Z14	X15	Y15	Z15	X16	Y16	Z16	X17	Y17	Z17	X18	Y18	Z18	X19	Y19	Z19	X20	Y20	Z20	X21	Y21	Z21	X22	Y22	Z22	X23	Y23	Z23	X24	Y24	Z24	X25	Y25	Z25	X26	Y26	Z26	X27	Y27	Z27	
187	3.1166666666666667	0.24507472026900773	0.44880438311695436	0.7305948153317969	0.2815930689606834	0.4707314063011634	1.11777443352176	0.2778436194440487	0.5677740738226981	1.5144649451864791	0.2693534507980566	0.36799290005430124	1.5158280044800352	0.3259763096807532	0.41965626314173005	1.5313724174345125	0.26208260022428176	0.5999780054604563	1.5750288615830819	0.04737573403483889	0.4627175720174691	0.7539935807163222	0.05372141325045822	0.45012097667896495	1.1299120438286525	0.08823057086969416	0.5081959211056468	1.5025058937681566	0.10036389523438197	0.3819433112740832	1.5471630968355456	0.05323783092275734	0.3758280858069976	1.5146943785216718	0.1110358794391816	0.591206273576444	1.5676277783124817	0.10511223315528191	0.4423089968561069	0.18988326566897723	0.1036355509656578	0.4312120125298333	-0.03817362986894086	0.12506644781397525	0.3639799185860026	0.07075395075075758	0.2436948083011924	0.42578626478964154	0.2545832806383812	0.28336539907369607	0.3776806581222517	0.5018415158072715	0.189833285133741	0.33177638647436203	0.6816210017396616	0.10967333334114168	0.30832942620662085	0.7437643123982767	0.10885246567913423	0.31841515572158713	0.7717772220955584	0.13220986656539063	0.3276391934694979	0.7938229297279702	-0.03109736503828426	0.480285570016144	0.2786151159850196	-0.03136180369315673	0.4274861204059721	0.5016807786758594	0.06757089805472702	0.315550190346414	0.6598744813849846	0.10568877113713449	0.3103203628322567	0.7157507263904507	0.11195442230642241	0.3023939964205109	0.7399698320134949	0.11309472402345139	0.3134280260619012	0.7501027536916127
188	3.1333333333333333	0.24478817543599077	0.4488306133074991	0.7307163207473609	0.2814850212330546	0.4707354930399489	1.1171904395801338	0.2778448913904201	0.5677496062795053	1.5144450230540563	0.26928518060104334	0.3681472482946596	1.5166620160050346	0.3259296641881853	0.4196080492265903	1.5313214448930375	0.26181662540096046	0.5997031116713665	1.5741779866051773	0.04712735358657387	0.46218613084718796	0.7534496181362825	0.052841010503559854	0.44981740040288626	1.1287613634569835	0.0882446725001524	0.5081937643054133	1.5025288196074897	0.10070070407925241	0.3814538114296044	1.547461669674358	0.05324627193756738	0.37585190781274813	1.5146747514970522	0.11105216659037576	0.5912520141278208	1.5677271782850368	0.1052386848759777	0.44262281590811414	0.1903012884519161	0.10356671536812447	0.43122703225238157	-0.03815480149608443	0.12415435752500993	0.361269006662859	0.06934818769075042	0.2436740466554529	0.42586068475916944	0.25462836628145363	0.28340663783703146	0.37768870834324375	0.5022423515110407	0.18987221534677	0.3316708328801481	0.6816570362460628	0.1068842291502305	0.3115231699082212	0.745509023951487	0.10712998045859135	0.32579321684362555	0.7747186743126491	0.13130018516279168	0.3271127560057487	0.7941041451119192	-0.03266393476206156	0.48622842658095916	0.2797550678071096	-0.031200029733005126	0.4276795495544756	0.5016688174684213	0.06749050729502937	0.31567626092912426	0.6598214535881742	0.1042886262138743	0.31060142823731873	0.7172902979404961	0.11025977539571298	0.30706641376644167	0.7424802195306156	0.11280951137895848	0.3138056054742333	0.7515401836281995
189	3.15	0.24505565667868143	0.44923376933907433	0.7308512290904357	0.28166471417130656	0.47089128668741953	1.1168924219266485	0.27783564295307744	0.5677404432881584	1.5144272105742342	0.26955798858362034	0.36722065830907585	1.5149429021255223	0.3259029436556702	0.4195694715815746	1.5312853923806382	0.2615544311258315	0.5994930346516183	1.5737143721915399	0.04731032351416735	0.4617906640296146	0.7524692500136387	0.05169270599602989	0.4493279075984177	1.1272020428440015	0.08825500081335676	0.508218434931878	1.5025461403189697	0.10076477194357128	0.3813575557020585	1.5474334106217493	0.0532512135892864	0.37591956006283267	1.5146601480912942	0.11105587135240158	0.5913526546157899	1.567788582245503	0.10538520483820601	0.44299335823514885	0.19012354168682308	0.10353083921437573	0.4311767556451852	-0.03815424482456216	0.12272661441651835	0.3571264578893524	0.0681043840906752	0.24365387870926142	0.4258444702016837	0.25465876069312215	0.2833136185996509	0.3779414606342343	0.5023563977085586	0.18986400614591029	0.3315715673210159	0.6817936913021972	0.1054545560636223	0.31460409771774334	0.7474279682736527	0.1062186610281311	0.33384105204620074	0.7783508648692965	0.13081014849434663	0.32712890565191965	0.7938743488514932	-0.033934248200102775	0.4898057747774189	0.2804817799338357	-0.03096955536279528	0.4277831088557233	0.5016529446484175	0.06735017758425309	0.31589960962906743	0.6598331034899413	0.10366347361263815	0.3108482866318946	0.7189690531957917	0.10905189849407536	0.3107872841018745	0.7443179224931838	0.11263211245401744	0.3140450838894814	0.7522446828627722
190	3.1666666666666665	0.24556464708675366	0.449797919970425	0.7309979679152645	0.28208617006023234	0.4712323961771135	1.1178390931674471	0.2778292366887304	0.5677549724292226	1.5144342647611548	0.27047224156093425	0.36424745995979924	1.5111345191763899	0.3258888475410965	0.4195208306516631	1.5312560404769773	0.26162280643246466	0.5996884630602155	1.5742797921106815	0.04759877387254451	0.4613480816591157	0.750991463461394	0.05081174797661517	0.44888941192651344	1.125963166087975	0.08826114974730004	0.5082464809363062	1.5025671940795617	0.10052259918591107	0.3816213393352381	1.5471877242623342	0.0532468385700607	0.3759819228494835	1.5146783600602853	0.11104169830203406	0.5914743373756047	1.5678707318335012	0.10539471928455274	0.4432132505463306	0.18960574623839777	0.10352588416266226	0.4310917534123586	-0.0381652319882606	0.12089371224375052	0.3537491358671297	0.06748558429007334	0.2436438083658902	0.4258087656971903	0.25465571975832446	0.2831454277625122	0.37832144857220196	0.5019499790330221	0.1898325758224502	0.331513620883743	0.6818905560420266	0.10557378413380078	0.3183787460577351	0.7495480690189583	0.10602855519478402	0.3391575716713273	0.7814915510907627	0.13042555918390655	0.32879566432733265	0.7934286846564282	-0.03453751747511956	0.49097233814411667	0.2807999816074054	-0.03116837297965601	0.4274841094966871	0.5017472920622001	0.06721311990245382	0.31605918261556887	0.6598645584259059	0.1036053621426971	0.3110342340463998	0.7201746997648223	0.10853098160686159	0.3121784618267293	0.7445903816812028	0.11256227231038199	0.31414590171483203	0.7523922783426195
191	3.183333333333333	0.24599797442209084	0.450249215299944	0.7311411491949411	0.28260879866598165	0.47173270296810055	1.120100148509442	0.27783464579441985	0.5677944650557755	1.5144702130773162	0.2718013489645926	0.35995620008032897	1.5068740564381422	0.3258686275434333	0.4194567140618208	1.5312239212252055	0.26202602509134554	0.6002304230244835	1.575416343487649	0.0478068531544411	0.460862840314906	0.7490691413454637	0.05042053226101421	0.44864251755654005	1.1254108838196666	0.08826745404908651	0.5082413720467102	1.5025921074753834	0.10015610695905407	0.3820589332150194	1.5466485402136592	0.05323106923565931	0.37601160441852427	1.514702071249277	0.11101901852742946	0.591547920643422	1.5679409210022934	0.10520749359767347	0.4431187717859076	0.18918087943362166	0.10355266018515862	0.43094519849774177	-0.03818401328230681	0.11912597255757192	0.35218224300729944	0.06736441391331856	0.24364135502013534	0.42578855173480046	0.2546043541470894	0.2829927366117333	0.378664454002947	0.5013688854497621	0.18973450743619943	0.3315070174491954	0.6815225390197606	0.10644816095029375	0.32274389328588426	0.751888797822377	0.10618500668484471	0.34120851306700706	0.7831029903979998	0.1295878090141451	0.3325416737770297	0.7927097157508165	-0.035200686096341145	0.49092761995923495	0.2810646123218298	-0.032477217610957426	0.4265926867802933	0.5022208017663606	0.06712486397635899	0.3160786532973434	0.6598794126530901	0.10372121440743365	0.31108929062406093	0.7205692824694655	0.1083741439586311	0.3119528926388024	0.7438844602214177	0.11255812642333182	0.31413382913366905	0.752322310032608
